PathFileType	4	(X/Y/Z)	c:/Users/goper/Files/vsCode/490R/osim_files/C07/C07_SSWS_03.trc
DataRate	CameraRate	NumFrames	NumMarkers	Units                	OrigDataRate	OrigDataStartFrame	OrigNumFrames
250.00	250.00	7	36	mm	250.0	2617	3489
                Frame#	Time	LPSIS			LASIS			LTH1			LTH2			LTH3			LTH4			LLFE			LMFE			LSH1			LSH2			LSH3			LSH4			LLMAL			LMMAL			LCAL			LMTP5			LTOE			LMTP1			RPSIS			RASIS			RTH1			RTH2			RTH3			RTH4			RLFE			RMFE			RSH1			RSH2			RSH3			RSH4			RLMAL			RMMAL			RCAL			RMTP1			RTOE			RMTP5		
		X1	Y1	Z1	X2	Y2	Z2	X3	Y3	Z3	X4	Y4	Z4	X5	Y5	Z5	X6	Y6	Z6	X7	Y7	Z7	X8	Y8	Z8	X9	Y9	Z9	X10	Y10	Z10	X11	Y11	Z11	X12	Y12	Z12	X13	Y13	Z13	X14	Y14	Z14	X15	Y15	Z15	X16	Y16	Z16	X17	Y17	Z17	X18	Y18	Z18	X19	Y19	Z19	X20	Y20	Z20	X21	Y21	Z21	X22	Y22	Z22	X23	Y23	Z23	X24	Y24	Z24	X25	Y25	Z25	X26	Y26	Z26	X27	Y27	Z27	X28	Y28	Z28	X29	Y29	Z29	X30	Y30	Z30	X31	Y31	Z31	X32	Y32	Z32	X33	Y33	Z33	X34	Y34	Z34	X35	Y35	Z35	X36	Y36	Z36

2617	10.46400	-3104.21509	976.06519	310.99310	0.00000	0.00000	0.00000	0.00000	0.00000	0.00000	0.00000	0.00000	0.00000	-2873.75342	620.75409	407.91641	-2926.00073	704.79993	459.21112	0.00000	0.00000	0.00000	-2878.31616	500.61700	362.25879	0.00000	0.00000	0.00000	0.00000	0.00000	0.00000	-2865.27515	1003.95142	280.19669	0.00000	0.00000	0.00000	-2830.63940	107.51337	218.69530	-2887.35303	136.28128	170.29755	-2797.80103	53.77073	143.31317	-2925.88672	39.15786	292.64133	-3001.95825	46.18995	273.75818	-2999.83301	39.94249	213.13383	0.00000	0.00000	0.00000	-2950.84912	1009.21204	226.71223	-3152.04590	833.47693	260.14294	-3179.68408	759.97992	272.50015	0.00000	0.00000	0.00000	-3174.87183	767.66071	350.03357	-3208.98438	512.96625	321.72998	0.00000	0.00000	0.00000	0.00000	0.00000	0.00000	0.00000	0.00000	0.00000	-3272.05176	350.92126	331.84531	0.00000	0.00000	0.00000	0.00000	0.00000	0.00000	-3294.89697	109.57038	315.86069	-3244.29224	41.08828	290.45288	-3350.67310	63.50618	462.77194	0.00000	0.00000	0.00000	-3246.66846	80.43462	497.81021
2618	10.46800	-3107.70972	976.28583	313.60675	0.00000	0.00000	0.00000	0.00000	0.00000	0.00000	0.00000	0.00000	0.00000	-2875.33276	620.59094	408.56256	-2927.25293	704.63531	460.15558	0.00000	0.00000	0.00000	-2880.04858	500.45804	362.93777	0.00000	0.00000	0.00000	0.00000	0.00000	0.00000	-2868.06348	1003.96484	281.01309	0.00000	0.00000	0.00000	-2833.56592	107.31322	220.23814	-2887.34741	136.59503	170.18144	-2797.97217	54.34948	143.13586	-2925.04346	37.87870	292.13406	-3001.88550	46.54931	273.01352	-2998.84277	39.29807	212.94299	0.00000	0.00000	0.00000	0.00000	0.00000	0.00000	0.00000	0.00000	0.00000	-3182.02710	759.83344	274.74411	0.00000	0.00000	0.00000	-3176.89258	767.27612	352.28021	-3210.45630	512.54169	323.40823	0.00000	0.00000	0.00000	0.00000	0.00000	0.00000	0.00000	0.00000	0.00000	-3273.46094	350.35455	334.28958	0.00000	0.00000	0.00000	0.00000	0.00000	0.00000	-3295.97510	108.68900	320.73508	-3245.47729	40.52680	295.50439	-3350.34717	62.83080	468.63852	0.00000	0.00000	0.00000	-3246.34351	81.46103	502.44711
2619	10.47200	-3109.62207	975.93005	316.19528	0.00000	0.00000	0.00000	0.00000	0.00000	0.00000	0.00000	0.00000	0.00000	-2877.00464	620.54327	409.32648	-2928.49097	704.46661	461.19595	0.00000	0.00000	0.00000	-2881.77466	500.38779	363.63004	0.00000	0.00000	0.00000	0.00000	0.00000	0.00000	-2870.84131	1004.05286	281.75912	0.00000	0.00000	0.00000	-2833.22437	108.12065	216.02644	-2887.83325	136.88402	170.20491	-2798.21362	55.00290	142.97176	-2925.08398	37.88823	292.05820	-3001.88574	46.37138	273.35803	-3000.02563	39.79300	213.08517	0.00000	0.00000	0.00000	-2957.42969	1009.36328	229.63171	0.00000	0.00000	0.00000	-3184.30884	759.72192	276.94223	0.00000	0.00000	0.00000	-3178.87329	766.85583	354.53064	-3211.84497	511.97141	325.16467	0.00000	0.00000	0.00000	0.00000	0.00000	0.00000	0.00000	0.00000	0.00000	-3274.72729	349.69498	336.71283	0.00000	0.00000	0.00000	0.00000	0.00000	0.00000	-3296.74585	107.67163	325.28741	-3245.94019	39.82970	300.37521	-3349.92651	62.12483	474.09979	0.00000	0.00000	0.00000	-3247.45581	82.23015	507.43604
2620	10.47600	-3112.31885	975.90936	318.87018	0.00000	0.00000	0.00000	0.00000	0.00000	0.00000	0.00000	0.00000	0.00000	-2878.68018	620.44348	410.02789	-2929.78564	704.42963	462.21274	0.00000	0.00000	0.00000	-2883.45386	500.38162	364.36530	0.00000	0.00000	0.00000	0.00000	0.00000	0.00000	-2873.73193	1003.99664	282.64679	0.00000	0.00000	0.00000	-2833.59277	108.50105	215.91171	-2888.96777	137.27162	170.46855	-2798.49780	55.64978	142.89729	-2925.11450	37.89532	291.97226	-3001.91577	46.25674	273.36380	-3000.23682	39.76618	213.08769	0.00000	0.00000	0.00000	0.00000	0.00000	0.00000	0.00000	0.00000	0.00000	-3186.61646	759.61652	279.18140	0.00000	0.00000	0.00000	-3180.80713	766.47656	356.77872	-3215.67285	512.30719	326.87112	0.00000	0.00000	0.00000	0.00000	0.00000	0.00000	0.00000	0.00000	0.00000	-3275.80591	348.95233	339.05563	0.00000	0.00000	0.00000	0.00000	0.00000	0.00000	-3297.27295	106.64922	329.72690	-3245.98682	39.11798	305.22003	-3349.47266	61.34017	479.14209	0.00000	0.00000	0.00000	-3247.31470	83.07545	511.90460
2621	10.48000	-3115.01636	975.85461	321.54721	0.00000	0.00000	0.00000	0.00000	0.00000	0.00000	0.00000	0.00000	0.00000	-2880.21460	620.45184	410.64627	-2931.17822	704.44458	463.21448	0.00000	0.00000	0.00000	-2885.26953	500.46747	365.15155	-2963.97754	1009.61475	232.61853	0.00000	0.00000	0.00000	0.00000	0.00000	0.00000	0.00000	0.00000	0.00000	-2833.83521	108.87905	215.81021	-2889.15674	137.74449	170.37953	-2798.74756	56.37957	142.76532	-2925.21265	37.90953	291.89954	-3001.94385	46.13043	273.35938	-3000.36597	39.70134	213.03395	0.00000	0.00000	0.00000	-2910.06567	972.07263	466.95743	0.00000	0.00000	0.00000	-3186.95630	759.01233	281.33139	0.00000	0.00000	0.00000	-3182.86011	766.15466	358.97778	-3214.53394	510.93188	328.47626	0.00000	0.00000	0.00000	0.00000	0.00000	0.00000	0.00000	0.00000	0.00000	-3276.76270	348.09204	341.40662	0.00000	0.00000	0.00000	0.00000	0.00000	0.00000	-3297.27271	105.50874	333.89813	-3245.54346	38.64525	309.84161	-3349.03540	60.54831	483.80261	0.00000	0.00000	0.00000	-3247.12524	83.82684	516.22498
2622	10.48400	-3117.61719	975.79565	324.27872	0.00000	0.00000	0.00000	0.00000	0.00000	0.00000	0.00000	0.00000	0.00000	-2881.75806	620.44580	411.37646	-2932.40381	704.33368	464.27094	0.00000	0.00000	0.00000	-2886.88672	500.42731	365.90024	0.00000	0.00000	0.00000	0.00000	0.00000	0.00000	-2879.41870	1004.15948	284.16089	0.00000	0.00000	0.00000	-2834.13599	109.28308	215.64362	-2889.69482	138.13004	170.52644	-2799.15918	57.12879	142.61365	-2925.23706	37.94555	291.85400	-3003.14673	46.65818	273.55194	-3000.51685	39.67960	213.03677	0.00000	0.00000	0.00000	0.00000	0.00000	0.00000	-3163.41138	833.16815	272.45648	-3189.07544	758.83722	283.49097	0.00000	0.00000	0.00000	-3186.32861	765.92438	361.46130	-3215.79858	510.21869	330.20245	0.00000	0.00000	0.00000	0.00000	0.00000	0.00000	0.00000	0.00000	0.00000	-3277.49023	347.17245	343.65485	-3286.39795	304.65237	347.23111	0.00000	0.00000	0.00000	-3297.03979	104.62774	337.92053	0.00000	0.00000	0.00000	0.00000	0.00000	0.00000	0.00000	0.00000	0.00000	-3246.94897	84.24137	520.22192
2623	10.48800	-3120.31836	975.78033	326.96548	0.00000	0.00000	0.00000	0.00000	0.00000	0.00000	0.00000	0.00000	0.00000	-2883.31030	620.53461	412.11374	-2933.67212	704.31329	465.36707	0.00000	0.00000	0.00000	-2888.58301	500.52023	366.72516	0.00000	0.00000	0.00000	0.00000	0.00000	0.00000	-2882.29053	1004.22681	284.98938	0.00000	0.00000	0.00000	-2834.31055	109.64643	215.47910	-2890.91064	138.64922	170.83777	-2799.46411	58.06530	142.46915	-2925.22339	38.02752	291.79025	-3003.15820	46.56413	273.53534	-3000.66260	39.69527	212.98856	0.00000	0.00000	0.00000	-2970.52905	1009.91425	235.67401	0.00000	0.00000	0.00000	-3193.52441	759.29913	285.61182	0.00000	0.00000	0.00000	-3188.43530	765.66730	363.57071	-3216.94165	509.59122	331.93298	0.00000	0.00000	0.00000	0.00000	0.00000	0.00000	0.00000	0.00000	0.00000	-3278.10400	346.20819	345.85999	0.00000	0.00000	0.00000	0.00000	0.00000	0.00000	-3296.51123	103.59521	341.68866	0.00000	0.00000	0.00000	-3347.97778	58.94192	491.88388	0.00000	0.00000	0.00000	-3246.82617	84.47176	523.94434
